/* XPM */
static char *3[] = {
/* columns rows colors chars-per-pixel */
"32 32 57 1",
"  c black",
". c #BA6B4F",
"X c #B86E4F",
"o c #BD694E",
"O c #B76F50",
"+ c #B86F50",
"@ c #FB0542",
"# c #FB0743",
"$ c #FB0644",
"% c #FB0744",
"& c #FE0044",
"* c #FE0144",
"= c #FF0044",
"- c #FC0643",
"; c #FC0544",
": c #FC0644",
"> c #F90B44",
", c #FB0844",
"< c #F80C42",
"1 c #F80D44",
"2 c #F90C44",
"3 c #F90D44",
"4 c #EF2244",
"5 c #EC2744",
"6 c #ED2744",
"7 c #EB2944",
"8 c #E92E44",
"9 c #EA2C44",
"0 c #EA2D44",
"q c #EC2844",
"w c #E63242",
"e c #E73343",
"r c #E73344",
"t c #E63743",
"y c #E53744",
"u c #E63444",
"i c #E33942",
"p c #E33B43",
"a c #E13A45",
"s c #E23945",
"d c #E33B44",
"f c #E23D42",
"g c #E43A43",
"h c #E43B44",
"j c #CD554A",
"k c #DA4646",
"l c #DE4145",
"z c #C1634D",
"x c #C0644D",
"c c #EA4B5A",
"v c #EA4C5A",
"b c #E7515A",
"n c #E7525A",
"m c #E7535A",
"M c #FBE7E8",
"N c gray100",
"B c None",
/* pixels */
"BBBBBBBBBBBBBBBBBBBBBBBBBBBBBBBB",
"BBBBBBBBBBBBBBBBBBBBBBBBBBBBBBBB",
"BBBBBBBBBBBBBBBBBBBBBBBBBBBBBBBB",
"BBBBBBBBBBBNNNNNNNNNBBBBBBBBBBBB",
"BBBBBBBBBNNNNNNNNNNNNNBBBBBBBBBB",
"BBBBBBBBNNNNNNNNNNNNNNNBBBBBBBBB",
"BBBBBBBNNNNNNNNNNNNNNNNNBBBBBBBB",
"BBBBBBNNNNNNNNNNNNNNNNNNNBBBBBBB",
"BBBBBBNNNNNNNNNNNNNNNNNNNBBBBBBB",
"BBBBBBNNNNNNNNNNNNNNNNNNNBBBBBBB",
"BBBBBBNNNNNNNNNNNNNNNNNNNBBBBBBB",
"BBBBBBMMMMMMMMMMMMMMMMMMMBBBBBBB",
"BBBBBBnnvccccccccccccccnnBBBBBBB",
"BBBBBBfw<@@@@@@@@@@@@@<wfBBBBBBB",
"BBBBBBy9%&&&&&&&&&&&&&%9yBBBBBBB",
"BBBBBB%%&&&&&&&&&&&&&&&%%BBBBBBB",
"BBBBBB&&&&&&&&&&&&&&&&&&&BBBBBBB",
"BBBBBB&&&&&&%%%,%&&&&&&&&BBBBBBB",
"BBBBBB&&&&&>99999>%&&&&&&BBBBBBB",
"BBBBBB&&&%>99>%>996%&%%&&BBBBBBB",
"BBBBBB&&%66,%&&&%,%&%9q%&BBBBBBB",
"BBBBBB&&&%%&&&&&&&&&>q>&&BBBBBBB",
"BBBBBB&&&&&&&&&&&&&%4>&&&BBBBBBB",
"BBBBBB&&&&&&&%&&&&%%>&&&&BBBBBBB",
"BBBBBB&&&&&&%6>,,>696%&&&BBBBBBB",
"BBBBBB&&&&&&%99q9q>%%&&&&BBBBBBB",
"BBBBBB&&&&&&&%%%%%&&&&&&&BBBBBBB",
"BBBBBB%%%%%%%%%%%%%%%%%%%BBBBBBB",
"BBBBBBagrrrrryrrryrrrrygaBBBBBBB",
"BBBBBB+zkgghghhhgggghgkz.BBBBBBB",
"BBBBBB++xlghgghhgaggglx+OBBBBBBB",
"BBBBBB+++jghhghhhgggtj+++BBBBBBB"
};
