/* XPM */
static char *1[] = {
/* columns rows colors chars-per-pixel */
"32 32 26 1",
"  c #A46D19",
". c #AA711A",
"X c #CF8A20",
"o c #CF8B20",
"O c #D08B20",
"+ c #D08B21",
"@ c #D38E22",
"# c #D48E23",
"$ c #D68F21",
"% c #D79021",
"& c #D79022",
"* c #D89022",
"= c #DA9223",
"- c #DB9323",
"; c #DB9324",
": c #DC9324",
"> c #DC9424",
", c #DE9525",
"< c #DE9625",
"1 c #DF9625",
"2 c #EEA12C",
"3 c #F0A32D",
"4 c #F1A42E",
"5 c #F2A42E",
"6 c #F4A62F",
"7 c #F5A72F",
/* pixels */
"%%%$%%X.X%$%$%X.X&&&&&X.X&&&&&X ",
"%%$%$%X.X%$$%%X.X&&&&&X.X&&&&&X ",
"%%%%%%X.X$;;&&X.X&&&&&X.X&&&&&X ",
"%%%%%%X.X$;2;%X.X&&%&&X.X&&&&&X ",
"%%%%%%X.X%;6;%X.X&&&%&X.X%$$&&X ",
"%%%%%%X.X$;6;%X.X&&&&&X.X%$$&&o ",
"%%%%%&X.X$;6;&X.X&&&&&X.X%$$$;X ",
"%%%%%%X.X$;61&X.X&&&&&X.X%$$$&X ",
"%%%%&&X.X&&>2>X.X%$%$;X.X%&&%&X ",
"#%%%%&X.X&;>6;X.X%%$$&X.X%%&&&X ",
"%%%%%%X.X%$;6;X.X%%%$$X.X&%%&&X ",
"$%%%&;X.X$$;6;X.X%$$$$X.X%&&&&X ",
"%%%$;2@.X%%&;&X.X&%&&&X.X&&%&&X ",
"%$%%>7#.X%&%%&X.X&&%&&X.X&&&&&X ",
"#%%%>6#.X&%&&&X.X&&%&&X.X&&&&&o ",
"%%%;6>o.X%&%&&X.X&%&&&X.X&&&&&X ",
"&%&>6>X.X&%&&&X.X&&&;$X.X$%$%&X ",
"#&$;6>X.X&&%&&X.X&%;6;X.X$$%%%X ",
"%%$>6;X.X&&&&&X.X&&>6;X.X$$$&&X ",
"%%;6>$X.X&&&&&X.X%;6>&X.X$$%&&X ",
"%$;2;&X.X&&&&&X.X&16;$X.X&&&&&X ",
"%%;;&&X.X&&&&&X.X;2>&%X.X&%&&&X ",
"$$$$&&X.X&&&%&X.X&;&$&X.X&&&%%X ",
"$$$$&&X.X&&&;&X.X&%%%&X.X&&&&;o ",
"$$$%$&X.X%$;2>X.X&&&&&X.X&&%;6@ ",
"$$%%&&X.X%$;7>X.X&&&&&X.X&&%;6@ ",
"$$%$&&X.X%;>6>X.X&&&&&X.X&&&>7@ ",
"%%$%&&X.X$;2>&X.X&&&&&X.X&&&>2@ ",
"%#&&&&X.X%>6;%X.X&&&&&X.X&%;6>+ ",
"%&$%&&X.X&;6;&X.X&&&&&X.X&$;6>+ ",
"%%&&&&X.X&&;&&X.X&&&&&X.X&%;2;o ",
"%%&&&&X.X&%&&&X.X&%&&&X.X&&&;;o "
};
